<svg version="1.1" xmlns="http://www.w3.org/2000/svg" xmlns:xlink="http://www.w3.org/1999/xlink" width="4698px" height="1615px" viewBox="0,0,256,88"><g fill="#ffffff" fill-rule="nonzero" stroke="none" stroke-width="1" stroke-linecap="butt" stroke-linejoin="miter" stroke-miterlimit="10" stroke-dasharray="" stroke-dashoffset="0" font-family="none" font-weight="none" font-size="none" text-anchor="none" style="mix-blend-mode: normal"><g transform="translate(-2.38563,-0.12649) scale(0.05449,0.05449)"><g><g><path d="M457.81,549.2c0,-4.66 0,-9.33 0,-13.99c1.04,-2.62 2.92,-5.23 2.99,-7.88c0.57,-20.77 1.02,-41.55 0.93,-62.32c-0.02,-3.92 -2.55,-7.83 -3.93,-11.74c0,-0.67 0,-1.33 0,-2c3.71,-1.48 7.43,-2.95 11.72,-4.66c-5.78,-4.05 -7.25,-7.65 -7.21,-15.92c0.03,-8.13 0.45,-8.79 7.92,-11.77c3.95,-1.57 7.94,-3.04 11.92,-4.56c-0.16,-0.48 -0.32,-0.97 -0.48,-1.45c-5.88,0 -11.76,0 -17.31,0c1.22,-8.5 2.3,-16.65 3.61,-24.77c0.82,-5.05 3.15,-8.06 9.12,-8.44c7.93,-0.51 15.81,-2.17 23.65,-3.64c18.84,-3.54 37.7,-3.54 56.62,-0.86c3.75,0.53 7.11,1.46 8.75,5.53c0.67,1.68 2.17,3.04 2.58,3.59c7.63,-1.04 14.14,-2.57 20.68,-2.71c18.95,-0.4 37.9,-0.28 56.86,-0.29c19.66,-0.01 39.33,0.04 58.99,0.13c9.73,0.05 12.13,2.4 12.59,12.31c0.14,2.98 0.46,6.14 -0.3,8.95c-2.74,10.18 0.22,19.97 2.42,30.08c2.83,-15.56 5.67,-31.11 8.58,-47.09c11.57,-4.05 23.79,-4.6 36.15,-3.9c6.97,0.4 13.93,1.17 20.9,1.33c28.67,0.66 57.3,-0.21 85.78,-3.8c4.05,-0.51 7.16,-0.04 9.33,3.79c0.93,1.64 2.43,2.97 4.42,5.33c10.94,-9.96 24.2,-8.62 37.17,-8.51c52.64,0.44 105.27,0.96 157.91,1.45c13.37,0.13 13.37,0.14 15.49,13.56c0.1,0.66 0.12,1.33 0.24,1.98c3.47,18.89 6.94,37.77 10.41,56.66c1.08,-4.34 1.28,-8.59 1.04,-12.82c-0.85,-14.74 1.01,-29.19 4.26,-43.53c1.8,-7.93 3.52,-9.62 11.23,-9.57c25.66,0.15 51.32,0.24 76.98,0.54c9.98,0.12 19.97,0.6 29.94,1.15c8.22,0.46 8.59,1 9.92,9.29c0.39,2.44 0.96,4.86 1.72,8.63c9.75,-14.83 23.04,-18.96 38.45,-19.09c39.64,-0.35 79.28,-1.52 118.92,-1.31c37.64,0.2 75.26,2.16 112.9,2.56c44.66,0.48 89.32,0.29 133.98,-0.05c7.85,-0.06 15.96,-1.47 23.47,-3.79c9.26,-2.86 18.35,-2.89 27.6,-1.53c9.04,1.33 10.35,2.79 11.11,12.13c0.49,5.96 0.11,12 0.57,17.96c0.31,4.03 1.41,8.01 2.16,12.01c0.66,-0.08 1.31,-0.17 1.97,-0.25c0.13,-1.16 0.33,-2.33 0.38,-3.49c0.28,-6.63 -0.22,-13.39 0.92,-19.86c2.2,-12.48 6.09,-15.41 18.97,-15.69c31.96,-0.68 63.93,-1.94 95.88,-1.67c59.95,0.51 119.9,1.94 179.85,3.02c1.96,0.04 3.91,0.46 7.05,0.85c7.97,32.74 11.08,66.48 18.03,99.71c2.16,-9.16 4.27,-18.36 3.85,-27.46c-0.75,-16.25 3.87,-30.68 10.76,-45.01c5.17,-10.75 12.89,-17.61 24.38,-20.03c11.07,-2.33 22.2,-4.38 33.38,-6.12c7.33,-1.14 8.93,0.06 12.49,6.97c2.05,3.97 4.07,7.94 6.13,11.97c19.07,-12.18 25.97,-14.23 48.01,-14.25c51.66,-0.05 103.32,-0.02 154.98,-0.11c3.95,-0.01 7.91,-0.56 11.84,-1.07c5.24,-0.68 10.42,-1.9 15.67,-2.29c14.25,-1.06 28.53,-1.84 42.8,-2.67c2.53,-0.15 5.08,-0.02 8.61,-0.02c1.27,14.33 2.88,27.79 3.55,41.28c0.65,13.15 0.34,26.34 0.45,39.51c1.02,0.04 2.04,0.08 3.07,0.12c1.23,-11.79 2.61,-23.57 3.63,-35.37c0.94,-10.9 1.93,-21.83 2.08,-32.76c0.15,-11.3 7.38,-15.92 16.48,-18.21c8.02,-2.02 16.43,-3.55 24.65,-3.51c34.95,0.17 69.9,0.99 104.85,1.62c0.91,0.02 1.8,0.64 3.43,1.25c1.21,6.38 2.46,13.02 4.16,21.99c1.76,-4.96 2.54,-7.75 3.71,-10.37c4.09,-9.2 8.61,-11.83 18.75,-10.82c7.95,0.79 15.91,1.62 23.81,2.75c25.5,3.62 50.96,4.06 76.66,1.39c14.81,-1.54 29.9,-0.48 44.86,-0.6c4.83,-0.04 7.33,2.43 7.91,7.13c0.6,4.82 1.29,9.62 2.29,16.97c5.89,-12.06 15.29,-11.96 24.76,-11.94c10,0.03 20,0.08 29.98,-0.33c20.95,-0.87 41.89,-2.32 62.85,-2.95c9.28,-0.28 18.6,1.34 27.9,1.29c18.64,-0.1 37.28,-0.7 55.91,-1.19c7.49,-0.2 8.24,0.21 10.6,7.56c1.14,3.53 2.25,7.08 3.48,10.92c4.66,-3.63 8.08,-6.87 12.02,-9.25c11.97,-7.24 24.01,-13.88 39.03,-12.6c8.19,0.7 16.58,-0.66 24.87,-1.28c26.22,-1.96 52.43,-4.03 78.65,-6.01c18.56,-1.4 37.12,-3.71 55.7,-3.81c22.27,-0.12 44.55,1.89 66.84,2.56c16.98,0.51 33.98,0.48 50.97,0.49c20.27,0.01 40.55,0.08 60.81,-0.43c12.23,-0.31 24.51,-1.1 36.61,-2.79c9.17,-1.28 18.05,-4.51 27.13,-6.54c9.99,-2.23 20.06,-4.08 27.92,-5.66c8.08,-20.41 14.85,-39.18 22.91,-57.37c7.12,-16.07 18.14,-29.38 32.88,-39.42c7.15,-4.87 13.83,-10.45 20.99,-15.31c30.77,-20.93 58.81,-44.79 81.42,-74.61c1.26,-1.66 3.19,-2.8 5.5,-4.77c1.44,4.87 2.25,8.77 3.74,12.4c4.29,10.43 7.35,21.79 13.64,30.89c13.16,19.05 32.06,32.54 49.54,47.03c9.54,-7.2 19.69,-6.15 29.28,-3.94c39.87,9.2 79.9,17.89 118.69,31.26c68.45,23.59 133.41,53.71 189.51,100.55c6.64,5.54 13.7,10.62 20.87,15.46c6.05,4.08 12.27,8.15 18.92,11.06c8.01,3.51 13.85,8.99 18.73,15.92c9.96,14.15 13.17,29.97 9.54,46.58c-2.64,12.05 1.32,20.51 9.95,28.23c15.43,13.81 33.21,23.44 52.84,29.4c42.99,13.05 86.18,25.45 129.16,38.51c10.44,3.17 20.74,7.23 30.52,12.06c10.24,5.06 18.45,12.76 22.25,24.13c0,13.99 0,27.98 0,41.97c-1.06,6.32 -2.13,12.64 -3.3,19.62c-22.14,-11.08 -24.81,-32.13 -30.12,-51.81c-0.31,2.31 -0.74,4.69 -0.24,6.86c3.75,16.6 7.76,33.11 19.09,46.64c3.42,4.08 7.01,8.1 9.8,12.6c1.59,2.56 3.01,6.36 2.3,9.02c-7.66,28.96 -15.36,58.01 -30.45,84.24c-39.4,68.5 -98.55,109.75 -175.78,124.69c-22.48,4.35 -45.56,5.84 -68.44,7.75c-14.9,1.24 -29.94,1.29 -44.91,1.1c-18.86,-0.23 -36.59,-6.44 -54.6,-11.24c-10.18,-2.71 -20.99,-5.47 -31.31,-4.84c-31.56,1.94 -63.08,5.02 -94.51,8.58c-29.1,3.3 -57.96,8.92 -87.1,11.46c-35.18,3.07 -70.57,4.36 -105.1,-6.21c-2.85,-0.87 -5.91,-1.08 -10.17,-1.83c3.33,5.47 5.78,9.4 8.12,13.39c6.66,11.36 7.43,22.52 2.04,35.14c-10.71,25.07 -20.49,50.56 -29.86,76.16c-4.69,12.81 -7.37,26.38 -6.54,40.18c2.31,38.28 7.95,76.12 16.44,113.5c3.17,13.94 6.18,28.02 10.76,41.53c14.52,42.92 13.24,86.02 1.1,128.8c-7.25,25.54 -17.41,50.26 -26.33,75.32c-0.25,0.7 -1.29,1.12 -2.56,2.16c-5.01,-10.26 -9.59,-20.21 -14.64,-29.92c-13.98,-26.86 -27.75,-53.84 -42.49,-80.28c-5.35,-9.61 -10.51,-20.35 -22.51,-24.27c-0.82,-0.27 -1.49,-1.32 -2,-2.14c-14.13,-23.02 -35.96,-37.33 -58.71,-49.95c-20.05,-11.12 -41.1,-20.45 -61.84,-30.3c-12.69,-6.03 -25.89,-10.48 -40.14,-11.24c-6.3,-0.33 -12.65,-0.85 -18.85,-2c-28.71,-5.36 -57.55,-5.19 -86.47,-2.59c-7.61,0.68 -15.26,1.13 -22.79,2.34c-20.5,3.3 -40.99,3.08 -61.68,2.07c-22.6,-1.1 -45.34,-1.37 -67.92,-0.13c-11.74,0.64 -22.41,1.94 -30.71,-9.56c-2.79,6.74 -6.71,10.57 -13.09,10.48c-21.64,-0.31 -43.31,-0.23 -64.91,-1.29c-21.25,-1.05 -42.27,-5.11 -63.72,-4.28c-17.64,0.68 -35.32,0.09 -52.99,0.02c-7.58,-0.03 -15.14,-0.21 -22.01,-9.1c0.23,11.98 -6.27,11.3 -12.53,11c-8.28,-0.4 -16.57,-1.1 -24.85,-1.12c-6.63,-0.01 -13.27,1.25 -19.9,1.16c-30.95,-0.45 -61.9,-1.33 -92.85,-1.7c-8.28,-0.1 -16.6,0.91 -24.86,1.71c-6.9,0.67 -12.42,-0.76 -15.81,-7.5c-1.81,-3.6 -4.25,-6.88 -6.74,-10.84c-1.54,2.1 -2.39,2.81 -2.67,3.7c-2.84,9.03 -8.85,11.43 -18.18,11.27c-32.99,-0.58 -65.99,-0.3 -98.98,-0.17c-7.65,0.03 -15.29,1.02 -22.93,1.04c-9.14,0.02 -18.42,0.21 -27.11,-5.48c-1.1,5.07 -3.62,8.06 -9.36,8.17c-12.95,0.24 -25.89,1.05 -38.82,1.75c-7.62,0.41 -15.21,1.23 -22.83,1.53c-6,0.24 -12.33,1.54 -15.7,-2.35c-3.44,0.9 -5.76,2.29 -7.7,1.88c-23.26,-4.93 -46.91,-4.53 -70.41,-4.52c-15.87,0.01 -31.73,2.81 -47.6,4.32c-1.98,0.19 -3.99,0.22 -5.98,0.28c-5.25,0.17 -9.72,-1.31 -13.34,-5.44c-3.19,-3.64 -6.86,-6.86 -10.04,-10c-6.1,2.43 -8.25,11.58 -16.39,7.23c-4.87,7.76 -12.01,2.68 -18.14,3.12c-5.64,0.41 -11.32,0.47 -16.98,0.5c-11.93,0.06 -23.88,0.28 -35.8,-0.12c-7.62,-0.25 -15.2,-1.95 -22.82,-2.19c-14.2,-0.44 -15.95,-1.45 -20.08,-15.27c-1.04,-3.5 -1.55,-7.15 -2.44,-10.7c-0.6,-2.39 -1.44,-4.72 -2.63,-8.55c-4.65,9.22 -8.31,16.92 -12.35,24.41c-5.85,10.82 -14.23,16.19 -27.43,15.75c-37.28,-1.25 -74.6,-1.43 -111.91,-1.9c-6.65,-0.08 -13.31,0.62 -19.96,0.72c-11.3,0.18 -22.6,0.2 -33.9,0.25c-7.05,0.03 -11.42,-3.76 -12.79,-10.33c-1.7,-8.1 -2.74,-16.33 -3.92,-24.53c-0.67,-4.67 -1.05,-9.38 -1.57,-14.07c-2.65,1.8 -3.47,3.58 -3.9,5.44c-2.29,10.05 -4.23,20.19 -6.81,30.17c-1.38,5.32 -2.67,10.65 -9.61,12.65c-14,4.04 -28.03,4.92 -42.46,3.75c-8.6,-0.7 -17.3,-0.04 -25.96,-0.02c-13.64,0.04 -27.3,0.35 -40.93,0.03c-22.62,-0.53 -45.24,-1.95 -67.86,-2.01c-10.89,-0.03 -21.95,1.4 -32.65,3.56c-33.37,6.74 -66.78,5.46 -100.37,2.48c-19.53,-1.73 -39.17,-2.33 -58.77,-3.26c-16.41,-0.78 -16.42,-0.66 -21.24,-16.41c-0.84,2.41 -1.38,3.8 -1.81,5.21c-3.81,12.67 -3.97,12.8 -17.22,12.96c-1,0.01 -2,0.01 -3,0.01c-48.33,0 -96.66,0.2 -144.98,-0.1c-19.97,-0.12 -39.94,-1.12 -59.89,-2.13c-5.23,-0.27 -10.4,-1.99 -15.56,-3.23c-6.45,-1.55 -12.78,-4.16 -19.31,-4.78c-18.51,-1.75 -37.08,-3.02 -55.66,-3.92c-18.62,-0.9 -37.27,-1.18 -55.9,-1.64c-5.94,-0.15 -11.88,-0.02 -18.79,-0.02c-2.5,-9.97 -4.72,-18.83 -6.95,-27.7c-0.43,-0.06 -0.85,-0.12 -1.28,-0.18c-0.69,7.33 -1.39,14.66 -2.13,22.56c-17.49,0.68 -34.22,1.33 -50.98,1.98c-1.86,16.68 -2.6,17.11 -19.58,17.5c-16.64,0.39 -33.27,1.54 -49.91,1.95c-24.96,0.62 -49.93,0.89 -74.9,1.25c-1.27,0.02 -2.55,-0.51 -3.84,-0.78c-1.27,-7.19 -2.51,-14.16 -3.74,-21.12c-0.54,0.09 -1.09,0.18 -1.63,0.27c-0.29,4.57 -0.58,9.15 -0.92,14.6c-4.12,0.2 -7.7,0.52 -11.28,0.52c-21.66,0.05 -43.33,0.23 -64.99,-0.06c-10.64,-0.14 -21.31,-0.78 -31.88,-1.97c-18.96,-2.14 -37.83,-2.56 -56.73,0.4c-6.12,0.96 -12.26,1.77 -18.88,2.72c-0.87,-8.97 -1.67,-17.24 -2.47,-25.52c-0.75,-0.04 -1.51,-0.08 -2.26,-0.12c-1.88,7.5 -3.75,15 -5.74,22.96c-20.05,-0.93 -39.24,1.26 -59.4,-1.53c-1.06,-13.64 -2.48,-26.46 -2.95,-39.31c-0.53,-14.64 0.05,-29.31 -0.34,-43.95c-0.25,-9.52 -0.14,-19.21 -4.54,-29.6c-0.85,3.04 -1.8,4.84 -1.81,6.65c-0.17,32.93 -0.23,65.87 -0.31,98.8c-0.01,4.86 0,9.71 0,14.55c-2.29,0.15 -3.35,0.5 -4.25,0.25c-17.65,-4.88 -35.43,-5.39 -53.42,-2.06c-3.26,0.6 -6.73,0.09 -12.47,0.09c4.85,-5.21 7.81,-8.39 11.52,-12.38c-19.02,-3.77 -37.16,-3.76 -55.02,-3.44c-1.17,-8.32 -2.27,-15.5 -3.18,-22.7c-2.14,-16.86 -3.84,-33.49 4.45,-49.7c2.77,-5.41 5.57,-9.34 10.93,-11.95c7.38,-3.59 14.52,-7.67 22.78,-12.09c-9.18,-4.91 -16.82,-9.56 -24.93,-13.15c-6.08,-2.7 -8.48,-7.23 -8.97,-13.1c-0.91,-10.93 -2.2,-21.91 -1.9,-32.83c0.32,-11.22 2.36,-22.39 3.64,-33.58c1.57,-13.73 4.11,-27.03 15.54,-36.62c1.11,-0.93 1.7,-2.48 3.37,-5c-8.18,1.57 -14.82,2.85 -21.8,4.19c-0.46,-2.42 -0.9,-3.69 -0.91,-4.96c-0.05,-7.99 -0.27,-16 0.06,-23.97c0.55,-13.16 3.6,-17.85 16.68,-19.51c15.54,-1.96 26.58,-13.56 41.54,-16.39c-17.7,-3.85 -35.48,-4.88 -52.76,-8.66c-0.17,-0.87 -0.34,-1.75 -0.5,-2.62c6.53,-3.48 13.06,-6.97 20.4,-10.88c-11.64,-2.24 -22.55,-4.34 -33.61,-6.47c-0.71,-34.41 -1.4,-67.82 -2.09,-101.16c7.54,-1.43 13.56,-2.57 19.58,-3.71c0.03,-0.62 0.07,-1.24 0.1,-1.86c-6.24,-0.7 -12.47,-1.4 -18.44,-2.07c-0.1,-1.86 -0.28,-2.53 -0.15,-3.14c4.82,-22.39 5.05,-44.9 1.48,-67.46c-2.35,-14.84 0.12,-29.17 4.38,-43.3c1.05,-3.47 2.52,-6.62 6.74,-7.94c13.31,-4.16 26.5,-8.71 39.76,-13.06c2.67,-0.87 5.42,-1.5 9.57,-2.64c-19.51,-5.93 -37.28,-11.48 -55.16,-16.65c-4.14,-1.2 -6.45,-3.18 -6.71,-7.38c-0.48,-7.62 -0.64,-15.27 -1.37,-22.86c-1.02,-10.52 0.38,-19.87 10.14,-26.18c0.92,-0.6 1.24,-2.12 2.56,-4.55c-9.87,-2.02 -18.92,-3.88 -27.97,-5.74zM3738.99,349.86c-0.64,0.42 -1.27,0.85 -1.91,1.27c-2.28,-1.84 -4.98,-3.36 -6.75,-5.61c-3.21,-4.06 -5.26,-9.2 -8.93,-12.7c-3.69,-3.53 -8.76,-5.59 -13.19,-8.36c-0.83,-0.52 -1.44,-1.38 -2.2,-2.03c-6.3,-5.34 -12.76,-10.03 -20.46,-13.73c-14.28,-6.87 -28.24,-14.82 -36.86,-29.41c-2.2,-3.71 -6.88,-5.99 -10.5,-8.82c-2.3,-1.8 -5.15,-3.07 -7.06,-5.19c-9.55,-10.64 -18.84,-21.5 -28.29,-32.22c-1.25,-1.42 -2.9,-2.48 -5.12,-4.34c-1.99,2.2 -5.07,4.06 -5.01,5.82c0.24,7.04 -4.68,9.75 -9.33,12.91c-7.61,5.17 -15.72,9.59 -21.35,17.37c-2.01,2.78 -5.78,4.34 -8.85,6.3c-4.75,3.03 -9.81,5.64 -14.33,8.98c-3.99,2.95 -7.33,6.74 -11.09,10c-8.5,7.38 -17.18,14.56 -25.52,22.11c-1.47,1.33 -1.98,4.03 -2.34,6.2c-1.09,6.54 -1.59,13.19 -2.85,19.7c-5.26,27 3.33,50.65 17.79,72.69c4.79,7.3 12.1,11.17 21.34,10.54c4.64,-0.32 9.33,-0.19 13.99,-0.12c3.6,0.06 5.51,1.97 5.45,5.64c-0.03,2 -0.3,4.01 -0.12,5.99c1.3,14.12 4.04,27.35 15.58,37.62c4.71,4.19 8.3,10.66 10.2,16.77c3.32,10.73 5.14,21.95 7.21,33.03c1.12,5.99 1.46,12.13 2.15,18.2c0.77,0.16 1.55,0.33 2.32,0.49c1.17,-2.35 2.76,-4.58 3.42,-7.07c2.23,-8.33 4.67,-16.67 5.99,-25.16c1.2,-7.7 4.2,-15.35 1.09,-23.49c-6.87,-17.98 -16.66,-33.97 -30.63,-47.33c-4.98,-4.76 -7.9,-10.58 -8.59,-17.55c-0.98,-9.88 -2.08,-19.75 -3.3,-29.61c-1.23,-9.98 1.7,-18.61 6.51,-27.39c4.4,-8.02 8.44,-16.98 9.54,-25.91c1.93,-15.75 1.46,-31.79 2.11,-47.7c0.15,-3.67 -1.08,-7.82 3.08,-11.45c4.94,10.93 8.34,21.34 9.42,32.8c2.86,30.39 -3.31,59.69 -10.23,88.81c-2.65,11.17 -0.58,20.06 5.52,29.12c8.36,12.41 16.36,25.08 24.2,37.83c1.85,3 2.72,6.71 3.57,10.2c1.18,4.83 1.58,9.86 2.94,14.63c2.35,8.21 2.95,16.32 0.52,24.59c-0.53,1.81 -0.67,3.73 -1.18,6.7c8.19,-2.48 16.04,-2.75 20.88,-9.74c9.36,-13.49 15.22,-28.06 13.29,-44.88c-0.49,-4.29 -1.45,-8.53 -2.08,-12.81c-0.3,-2 -0.33,-4.04 -0.54,-6.66c4.62,2.73 8.29,4.92 11.98,7.08c8.33,4.88 15.34,15.15 9.37,27.13c-2.22,4.45 -4.11,9.12 -5.56,13.87c-2.22,7.27 -6.35,13.12 -11.89,18.13c-13.18,11.92 -27.92,21.62 -43.83,29.36c-13.75,6.69 -27.97,12.4 -40.3,21.69c-0.26,0.2 -1,-0.24 -2.22,-0.56c1.82,-3.62 3.89,-6.98 5.26,-10.61c1.97,-5.2 4.37,-10.5 4.95,-15.93c1.62,-15.22 -2.47,-29.09 -12.94,-40.48c-4.41,-4.8 -9.75,-8.78 -14.86,-12.9c-4.85,-3.93 -9.89,-7.64 -14.95,-11.29c-2.69,-1.94 -5.69,-3.47 -8.43,-5.34c-4.71,-3.22 -6.75,-7.11 -6.22,-13.43c1.02,-12.05 -3.19,-22.74 -11.75,-31.6c-4.25,-4.4 -8.32,-9.01 -12.11,-13.81c-1.09,-1.38 -1.35,-3.78 -1.25,-5.68c0.29,-5.55 -1.37,-10.28 -4.15,-15.08c-2.1,-3.63 -2.7,-8.12 -3.99,-12.22c-0.81,-2.58 -1.65,-5.15 -3.2,-9.94c-4.85,16.32 -10.1,29.71 -12.37,44.24c-3.02,19.27 -4.05,38.23 0.38,57.36c1.48,6.39 3.69,13.07 3.07,19.37c-0.98,9.89 2.23,18.28 5.77,26.88c0.76,1.84 2.3,3.98 1.89,5.58c-2.12,8.41 3.13,14.6 5.93,21.51c7.91,19.55 21.25,32.62 42.91,35.75c3.22,0.46 6.39,1.22 9.58,1.83c-2.92,3.02 -6.37,4.36 -9.84,5.63c-5.45,1.99 -11.66,0.84 -16.65,5.21c-7.34,6.44 -15.59,4.81 -22.81,-0.13c-10.29,-7.05 -20.17,-14.73 -29.9,-22.54c-2.74,-2.2 -5.38,-5.56 -6.25,-8.86c-3.27,-12.48 -6.49,-25.06 -8.39,-37.79c-1.95,-13.02 -4.81,-26.11 -2.69,-39.5c0.29,-1.82 -0.93,-3.84 -1.19,-5.8c-0.73,-5.58 -1.92,-11.18 -1.85,-16.75c0.14,-10.91 1.32,-21.81 1.47,-32.72c0.12,-8.68 -0.33,-17.31 3.65,-25.41c0.75,-1.53 0.93,-3.35 1.87,-6.88c-3.23,2.33 -5.19,3.17 -6.31,4.65c-4.14,5.47 -10.1,6.75 -16.28,8.34c-11.57,2.97 -23.09,6.25 -34.38,10.14c-8.07,2.78 -16.02,3.56 -24.5,3.1c-6.83,-0.37 -13.75,0.98 -20.63,1.66c-0.43,0.04 -0.78,0.93 -1.25,1.53c1.48,1.61 2.97,3.23 4.45,4.84c-6.54,6.4 -11.79,9.87 -21.42,12.92c-15.48,4.91 -31.12,9.3 -46.61,14.19c-4.32,1.36 -8.33,3.7 -12.57,5.62c1.01,2.35 1.62,3.77 2.78,6.45c-6.37,2.82 -12.69,5.48 -18.9,8.39c-12.29,5.76 -26.37,9.31 -31.1,24.65c-0.27,0.89 -1.27,1.53 -1.82,2.36c-8.62,12.86 -21.75,18.42 -36.1,21.07c-13.73,2.53 -24.1,10.55 -34.08,17.52c0,3.05 0.79,5.58 -0.14,6.8c-3.22,4.21 -6.48,8.75 -10.73,11.74c-17.95,12.6 -36.28,24.66 -54.44,36.97c-8.66,5.87 -19.41,9 -24.73,19.34c-1.11,2.15 -3.75,4.05 -6.12,4.94c-12.24,4.59 -21.63,12.85 -30.18,22.36c-1.76,1.95 -4.17,3.3 -6.11,5.1c-3.85,3.59 -8.28,6.84 -11.16,11.11c-2.82,4.17 -5.97,6.53 -10.68,8.1c-4.24,1.41 -9.03,3.49 -11.71,6.79c-6.32,7.8 -12.55,15.48 -20.85,21.32c-1.83,1.29 -3.44,3.29 -4.45,5.31c-9.07,18.32 -27.67,27.36 -40.84,41.71c-7.09,7.73 -16.64,13.11 -22.38,22.49c-2.19,3.57 -5.76,6.45 -9.09,9.15c-12.88,10.42 -25.91,20.65 -38.53,30.66c0.69,3.69 1.42,7.7 2.19,11.7c1.45,7.46 0.76,16.57 4.9,21.98c5.9,7.7 9.51,15.92 11.11,24.71c2.71,14.88 7.56,28.85 14.32,42.2c3.58,7.07 4.47,16.22 13.86,19.36c1.21,0.41 1.91,2.62 2.66,4.09c2.88,5.61 5.78,11.21 8.51,16.89c9.87,20.54 24.59,37.04 42.38,50.98c1.24,0.97 3.55,2.62 4,2.26c5,-4.01 7.38,0.27 9.68,3.13c14.63,18.26 31.2,34.55 48.96,49.75c14.03,12.01 31.2,17.5 47.91,23.98c0.9,0.35 2.81,-1.91 4.61,-3.22c6.27,2.78 13.07,5.5 19.61,8.75c14.86,7.4 29.53,15.2 44.4,22.59c10.69,5.31 21.33,10.85 32.43,15.17c16.72,6.51 33.79,12.13 50.76,17.98c12.88,4.44 25.61,9.62 38.82,12.71c17.2,4.02 34.08,8.22 49.33,17.59c4.2,2.58 8.99,4.4 13.71,5.91c19.35,6.16 38.77,12.09 58.18,18.03c3.17,0.97 6.48,2.35 9.68,2.23c8.03,-0.31 15.02,2.57 21.94,5.88c9.6,4.6 18.87,10.01 28.74,13.9c9.13,3.6 17.05,8.69 24.93,14.36c15.09,10.88 30.68,21.08 46.03,31.53c1.51,-2.03 2.51,-3.38 3.32,-4.46c9.08,9.21 17.71,17.9 26.24,26.68c1.13,1.16 1.69,2.86 2.64,4.23c5.48,7.91 10.03,16.78 16.74,23.46c9.31,9.27 17.74,18.74 22.6,31.07c0.6,1.53 1.45,3.04 2.49,4.32c8.23,10.11 11.8,22.18 14.87,34.51c0.71,2.86 2.05,5.56 3.88,10.37c1.87,-7.65 2.84,-12.9 4.48,-17.94c1.63,-5.03 2.73,-11.01 6.18,-14.5c6.84,-6.92 7.31,-15.17 8.01,-23.7c0.7,-8.61 1.79,-17.22 1.89,-25.84c0.11,-8.94 0.56,-18.21 -1.52,-26.75c-2.67,-10.98 -6.07,-21.68 -6.13,-33.12c-0.01,-1.94 -0.92,-3.86 -1.36,-5.81c-3.86,-16.88 -7.47,-33.71 -7.14,-51.26c0.12,-6.35 -1.66,-13.49 -4.84,-18.96c-4.48,-7.71 -7.22,-15.71 -8.52,-24.23c-1.87,-12.14 -6.78,-22.78 -13.51,-32.93c-3.62,-5.46 -6.51,-11.57 -8.75,-17.74c-3.78,-10.37 -8.84,-19.94 -14.66,-29.3c-4.17,-6.7 -8.22,-13.98 -10.01,-21.54c-2.35,-9.92 -7.66,-16.34 -15.9,-21.76c-15.84,-10.41 -31.09,-21.72 -46.87,-32.21c-6.33,-4.21 -13.37,-7.38 -20.22,-10.75c-4.76,-2.34 -9.73,-4.28 -14.65,-6.27c-26.79,-10.84 -53.65,-21.5 -80.37,-32.52c-12.58,-5.19 -25.5,-10 -37.2,-16.81c-18.38,-10.69 -36.07,-22.64 -53.66,-34.63c-9.32,-6.35 -17.92,-13.78 -26.6,-21.01c-2.75,-2.29 -4.71,-5.54 -7.03,-8.36c3.98,0.09 6.54,1.43 9.04,2.88c13.53,7.87 27.1,15.66 40.52,23.71c4.53,2.72 8.92,5.79 12.94,9.21c20.43,17.41 43.69,28.9 69.92,34.63c6.77,1.48 13.33,3.98 19.88,6.32c7.47,2.66 14.77,5.8 22.24,8.48c4.68,1.68 9.62,2.66 14.29,4.37c12.19,4.45 24.66,8.35 36.33,13.92c12.83,6.12 25.58,12.87 37.13,21.09c20.69,14.72 38.47,32.72 54.29,52.66c5.3,6.68 11.6,12.56 17.87,19.26c1.15,-1.95 2.54,-3.47 3,-5.24c2.05,-8 3.81,-16.08 5.75,-24.11c0.44,-1.81 1.1,-5.05 1.79,-5.09c5.29,-0.25 5.33,-4.79 6.2,-7.82c2.92,-10.16 5.2,-20.5 7.7,-30.78c0.31,-1.28 0.13,-2.75 0.68,-3.89c3.3,-6.78 6.66,-13.54 10.17,-20.21c2.87,-5.46 2.41,-10.53 0.02,-16.2c-2.85,-6.74 -6.97,-11.97 -12.06,-17.3c-16.5,-17.31 -32.09,-35.49 -47.97,-53.38c-0.76,-0.85 -1.01,-2.16 -1.9,-4.18c4.84,0.82 8.77,1.2 12.55,2.19c6.72,1.75 14.16,2.59 19.82,6.15c7.49,4.71 15.3,7.3 23.61,9.81c26.26,7.93 52.91,12.48 80.31,14.55c23.47,1.77 46.53,0.5 69.64,-2.74c3.99,-0.56 7.82,-2.21 11.73,-3.36c-0.01,-0.84 -0.03,-1.67 -0.04,-2.51c-3.59,-1.24 -7.1,-2.89 -10.79,-3.66c-24.38,-5.05 -46.85,-14.76 -67.42,-28.54c-10.44,-7 -19.67,-15.77 -29.82,-23.25c-32.97,-24.31 -49.93,-58.41 -57.85,-97.18c-7.21,-35.25 -9.8,-71.18 -10.83,-107.16c-0.06,-2.02 0.23,-4.06 0.36,-6.09c8.44,18.57 13.05,37.83 16.67,57.36c2.48,13.4 4.93,26.81 7.5,40.2c0.37,1.92 1.15,3.79 1.95,5.59c1.97,4.43 4.11,8.78 6.08,13.21c2.13,4.82 3.65,9.98 6.29,14.49c9.4,16.06 19.08,31.96 28.85,47.79c2.6,4.22 5.53,8.38 8.98,11.91c14.25,14.6 30.84,26.35 47.7,37.68c2.36,1.59 5.49,2.13 8.34,2.87c7.05,1.84 14.24,3.23 21.22,5.31c19.12,5.7 37.97,12.56 58.4,11.73c2.29,-0.09 4.61,0.57 6.93,0.81c14.56,1.51 29.11,4.02 43.69,4.25c22.95,0.37 45.92,-0.77 68.89,-1.32c6.64,-0.16 13.28,-0.7 19.93,-0.73c3.82,-0.01 7.64,0.66 11.46,1.02c8.19,-2.56 14.73,-8.48 21.19,-14.84c8.01,-7.88 16.67,-15.19 25.6,-22.04c6.89,-5.28 16.53,-5.65 23.16,-11.87c1.06,-1 3.09,-1.21 4.71,-1.34c27.21,-2.13 54.41,-4.31 81.63,-6.22c11.62,-0.81 23.28,-1.11 34.93,-1.49c5.76,-0.19 11.53,-0.03 17.3,-0.03c0.21,0.65 0.43,1.3 0.64,1.96c-12.76,7.69 -29.39,10.96 -35.1,28.54c3.8,0.28 6.41,0.71 9,0.62c11.98,-0.41 23.96,-0.94 35.93,-1.48c1.65,-0.07 3.44,-0.09 4.92,-0.71c11.63,-4.86 24.84,-3.64 36.2,-9.51c0.87,-0.45 1.91,-0.79 2.87,-0.8c4.32,-0.06 7.17,-2.18 10.04,-5.39c5.51,-6.16 10.87,-13.04 17.73,-17.27c14.12,-8.71 22.73,-22.22 31.81,-34.92c11.37,-15.88 21.11,-33 28.62,-51.26c4.87,-11.84 -0.47,-23.15 -12.55,-27.22c-8.73,-2.94 -17.87,-6.1 -25.21,-11.41c-13.83,-10.01 -24.71,-23.29 -33.56,-37.9c-6.21,-10.27 -15.11,-16.82 -26.03,-20.5c-15.1,-5.09 -30.6,-9 -45.67,-14.19c-6.67,-2.3 -13.53,-5.52 -18.8,-10.07c-6.72,-5.81 -11.96,-13.35 -17.71,-20.25c-1.09,-1.31 -1.56,-3.13 -2.34,-4.77c28.61,9.48 56.55,18.86 84.59,27.95c7.25,2.35 14.83,3.64 22.18,5.69c5.33,1.48 10.49,4.19 11.34,10.05c1.46,10.03 6.59,18.1 12.6,25.58c9.8,12.19 19.72,24.43 35.5,32.5c-1.83,-5.49 -3.03,-9.57 -4.56,-13.53c-1.43,-3.71 -3.35,-7.24 -4.8,-10.95c-2.05,-5.22 -4.79,-10.41 -5.59,-15.85c-1.14,-7.82 -1.23,-15.88 -0.98,-23.81c0.44,-14.16 0.66,-14.06 -12.86,-17.29c-7.43,-1.77 -14.93,-3.46 -22.13,-5.94c-13.72,-4.73 -27.25,-10.01 -40.87,-15.04c-0.62,-0.23 -1.3,-0.28 -1.93,-0.46c-19.16,-5.44 -38.52,-10.25 -57.38,-16.59c-10.37,-3.48 -21.54,-6 -29.57,-15.02c-2.87,-3.23 -8.17,-4.24 -12.22,-6.52c-4.07,-2.3 -7.96,-4.94 -13.07,-8.13c2.66,15.51 5.35,29.17 7.25,42.94c1.95,14.13 4.38,28.32 1.36,42.67c-1.41,6.68 -3.8,12.75 -9.08,17.32c-4.21,3.64 -8.59,7.08 -12.77,10.75c-9.23,8.11 -18.14,16.59 -27.66,24.33c-4.4,3.58 -8.35,7.7 -14.64,9.38c-4.01,1.07 -6.68,7.02 -10.02,10.72c-4.76,5.3 -8.24,11.97 -16.23,14.22c7.43,-15.92 9.06,-34.73 24.58,-46.46c1.04,-0.79 2.44,-1.73 2.71,-2.83c1.86,-7.59 8.28,-10.77 13.84,-14.8c9.16,-6.65 18.46,-13.12 27.43,-20.02c7.84,-6.02 12.16,-13.89 11.22,-24.21c-1.12,-12.26 -1.5,-24.6 -3.09,-36.8c-1.2,-9.18 -3.26,-18.35 -5.94,-27.22c-3,-9.91 -10.43,-13.62 -20.78,-12.02c-10.77,1.66 -20.7,-0.67 -30.08,-7.3c13.68,-2.23 23.94,-10.53 35.02,-17.4c-6.55,-9.2 -10.31,-11.61 -21.78,-14.93c-4.42,-1.28 -8.71,-3.06 -12.99,-4.77c-2.56,-1.03 -4.92,-3.28 -7.47,-3.44c-23.9,-1.51 -47.82,-2.69 -71.74,-3.89c-0.67,-0.03 -1.38,0.82 -2.12,1.29c13.71,12.43 11.95,29.7 17.4,46.44c-5.43,-0.26 -8.96,-0.15 -12.41,-0.64c-15.97,-2.29 -29.12,-10.8 -42.42,-19.14c-6.4,-4.01 -13.38,-7.21 -20.35,-10.16c-13.46,-5.71 -27.13,-10.92 -40.65,-16.5c-2.23,-0.92 -4.14,-2.65 -7.53,-4.88c2.95,-0.49 4.15,-0.84 5.36,-0.87c25.93,-0.65 51.87,-1.25 77.8,-1.9c2.32,-0.06 4.8,0.07 6.93,-0.68c21.91,-7.72 44.26,-3.15 66.38,-2.13c17.55,0.82 34.79,6.32 52.57,4.8c6.81,-0.58 13.52,-2.28 22.7,-3.89c-4.25,-5.44 -6.39,-9.78 -9.84,-12.31c-11.49,-8.42 -23.65,-15.92 -35.2,-24.25c-21.51,-15.51 -42.76,-31.37 -64.16,-47.02c-1.55,-1.13 -3.5,-1.72 -5.23,-2.62c-8.84,-4.56 -18.58,-7.95 -26.29,-13.96c-13.81,-10.77 -30.28,-14.78 -45.92,-20.98c-8.6,-3.41 -17.47,-6.2 -25.86,-10.03c-9.33,-4.26 -17.87,-10.55 -27.47,-13.88c-17.85,-6.19 -36.14,-11.22 -54.42,-16.07c-14.35,-3.81 -28.75,-7.98 -44.84,-6.84c1.12,2.92 2.32,5.53 3.12,8.26c0.82,2.81 2.49,6.23 1.58,8.5c-2.27,5.62 0.43,9.42 2.93,13.73c4.12,7.3 8.04,14.74 12.08,22.1zM2497.54,649.52c-1.06,0.15 -2.12,0.29 -3.18,0.44c-4.1,-5.58 -8.44,-11 -12.27,-16.77c-9.4,-14.14 -17.79,-29.02 -28.05,-42.5c-9.01,-11.84 -19.55,-22.65 -30.25,-33.05c-9.2,-8.94 -21.07,-13.91 -33.26,-17.68c-7.38,-2.28 -9.06,-1.52 -13.22,4.79c-3.3,5 -6.18,10.31 -9.82,15.06c-3.61,4.72 -3.85,9.58 -2.84,15.07c5.79,31.51 8.41,63.4 8.89,95.35c0.47,31.27 -0.4,62.58 -1.34,93.85c-1.34,44.26 -3.16,88.51 -5.01,132.76c-1.76,41.96 -1.31,83.88 1.03,125.81c0.28,5.06 1.94,8.83 5.84,12.03c5.66,4.65 11.43,9.26 16.46,14.56c5.76,6.07 11.96,6.42 19.02,3.4c3.3,-1.42 6.56,-2.95 10.11,-4.57c-0.25,-3.46 -0.23,-6.44 -0.71,-9.34c-4.63,-27.97 -7.75,-56.15 -7.3,-84.47c1.07,-67.58 3.52,-135.14 4.32,-202.71c0.43,-36.58 -1.39,-73.19 -2.23,-109.79c-0.09,-4.1 -0.44,-8.19 -0.67,-12.28c0.75,-0.36 1.51,-0.72 2.26,-1.09c10.35,8.2 21.09,15.98 30.97,24.71c14.04,12.41 28.54,24.05 45.41,32.38c4,1.98 5.98,4.64 6.43,9.14c1.75,17.21 4.31,34.36 5.65,51.6c3.64,46.88 2.24,93.85 1.47,140.79c-0.74,45.27 -1.71,90.55 -3.21,135.8c-0.32,9.74 4.12,14.97 11.7,18.8c8.25,4.16 17.07,5.34 26.23,3.88c11.21,-1.79 11.26,-1.97 10.94,-13.26c-1.14,-40.27 -2.1,-80.54 -3.29,-120.81c-1.82,-61.9 -3.8,-123.79 -5.6,-185.69c-0.31,-10.58 -0.04,-21.19 -0.04,-32.51c4.11,-1.38 9,-2.57 13.44,-4.7c2.31,-1.11 5.25,-3.73 5.47,-5.92c1.44,-14.17 9.1,-25.18 18.53,-34.58c13.18,-13.13 27.54,-25.08 41.42,-37.5c5.01,-4.48 10.59,-4.82 17.14,-2.06c0.54,3.88 1.32,7.79 1.59,11.74c3.19,45.82 6.81,91.62 9.29,137.48c1.97,36.3 -0.01,72.57 -5.4,108.56c-1.21,8.1 -2.15,15.56 2.12,23.11c1.73,3.05 2.48,7.01 2.57,10.58c0.48,18.26 1.01,36.54 0.71,54.8c-0.27,16.3 -1.73,32.58 -2.33,48.88c-0.11,3.09 0.57,6.77 2.26,9.24c3.92,5.71 8.41,11.1 13.21,16.09c2.66,2.76 6.14,5.28 9.74,6.47c11.98,3.99 17.32,-0.04 17.57,-12.54c0.7,-35.29 1.7,-70.57 2,-105.86c1.02,-118.23 0.02,-236.41 -9.81,-354.34c-0.91,-10.88 -4.51,-14.45 -15.51,-15.38c-15.16,-1.27 -28.55,3.39 -39.6,13.34c-12.11,10.89 -23.53,22.58 -34.91,34.26c-10.23,10.49 -19.81,21.61 -30.03,32.11c-5.22,5.37 -10.85,10.6 -19.76,12.07c0,-3.6 -0.11,-6.52 0.02,-9.42c0.88,-19.96 1.87,-39.91 2.69,-59.87c0.5,-12.04 -7.83,-18.57 -19.39,-15.48c-11.19,2.99 -16.12,11.56 -18.18,21.75c-3.55,17.56 -7.74,35.04 -6.67,53.3c0.43,6.64 -1.66,13.44 -2.62,20.17zM1150.89,1038.62c12.1,0.17 16.6,-5.26 13.15,-16.93c-1.87,-6.32 -4.49,-12.58 -7.78,-18.28c-10.14,-17.59 -20.51,-35.05 -31.3,-52.25c-4.94,-7.88 -7.03,-15.93 -4.14,-24.64c3.33,-10.04 5.98,-20.78 11.57,-29.51c12.9,-20.14 27.31,-39.32 41.3,-58.76c9.32,-12.96 18.92,-25.73 28.46,-38.53c4.76,-6.38 9.3,-12.98 14.59,-18.91c10.64,-11.92 11.27,-19.12 1.82,-31.72c-42.07,-56.1 -72.38,-117.67 -87.15,-186.52c-2.6,-12.12 -9.17,-15.87 -21.19,-13.21c-5.8,1.28 -8.97,5.05 -12.02,9.61c-20.74,30.99 -42.11,61.57 -62.26,92.94c-15.99,24.9 -30.95,50.5 -45.52,76.27c-5.63,9.95 -10.66,19.77 -20.87,25.87c-2.52,1.5 -4.57,3.87 -6.62,6.04c-14.1,15.01 -16.37,33 -5.01,50.17c6.58,9.93 14.72,18.88 22.63,27.86c10.12,11.49 21.15,22.21 30.93,33.98c5.44,6.54 10.6,14.06 13.21,22.01c3.22,9.83 9.03,16.78 16.63,22.95c3.87,3.14 7.83,6.23 11.3,9.78c4.86,4.96 6.34,10.39 2.15,16.98c-6.43,10.1 -12.41,20.5 -18.35,30.89c-7.26,12.71 -14.53,25.42 -21.34,38.38c-4.06,7.73 -6.22,16.19 -5.74,25.04c0.53,9.86 9.41,18.44 17.99,17.75c4.95,-0.4 9.91,-0.95 14.87,-1.07c5.68,-0.14 9.51,-2.53 11.31,-7.99c1.98,-6 3.52,-12.21 6.08,-17.95c3.91,-8.76 7.23,-18.25 13.12,-25.56c13.49,-16.76 17.73,-15.25 30.41,0.33c5.04,6.19 9.47,12.9 14.68,18.93c8.66,10 19.51,15.96 33.09,16.05zM2130.73,729.45c0.32,2.73 0.74,4.68 0.74,6.62c0.02,31.96 0.58,63.94 -0.15,95.88c-1.49,64.55 -3.7,129.09 -5.59,193.63c-0.23,7.92 2.03,11.75 9.16,14.68c9.88,4.05 19.05,2.34 27,-4.59c7.65,-6.66 9.65,-15.36 5.75,-24.47c-4.23,-9.87 -5.27,-19.85 -3.95,-30.24c4.12,-32.45 4.37,-65.03 3.95,-97.69c-0.23,-17.61 0.41,-35.27 1.65,-52.84c1.59,-22.53 5.24,-44.83 4.44,-67.62c-1.45,-41.58 -1.65,-83.2 -2.62,-124.8c-0.66,-27.95 -1.66,-55.89 -2.72,-83.83c-0.35,-9.39 -5.64,-14.54 -14.84,-15.34c-6.19,-0.53 -11.85,0.66 -16.86,4.69c-2.83,2.28 -5.8,4.82 -9.15,5.92c-6.04,1.98 -10.17,5.96 -14.13,10.52c-5.24,6.03 -10.74,11.84 -16.09,17.78c-9.14,10.14 -19.69,19.37 -27.06,30.67c-11.08,16.98 -25.45,30.67 -39.17,45.15c-7.54,7.96 -14.79,16.26 -21.48,24.94c-7.71,9.99 -11.28,21.57 -11.86,34.33c-1.95,42.89 -4.84,85.75 -6.29,128.65c-1.66,49.22 -2.65,98.49 -2.86,147.74c-0.06,14.82 3.06,29.72 5.56,44.44c0.85,5 3.7,9.99 6.7,14.22c3.38,4.75 8.75,5.73 14.39,3.94c5.13,-1.62 7.4,-5.25 7.38,-10.54c-0.01,-1.99 0.33,-3.98 0.42,-5.97c1.61,-37.91 2.98,-75.83 4.87,-113.73c1.44,-28.87 3.44,-57.71 5.43,-86.55c0.29,-4.23 1.44,-8.55 2.99,-12.51c2.69,-6.85 7.72,-12.19 15.02,-13.44c8.26,-1.42 12.64,-6.61 16.46,-13.07c6.95,-11.74 13.42,-23.81 21.06,-35.09c5.93,-8.76 12.94,-16.9 20.22,-24.61c5.37,-5.66 12.33,-8.93 21.63,-6.87zM2261.4,764.94c8.32,-8.78 15.08,-16.13 22.08,-23.25c6.63,-6.75 14.2,-12.04 23.73,-14.04c1.91,-0.4 3.87,-1.08 5.51,-2.11c9.01,-5.6 17.97,-11.27 26.84,-17.08c5,-3.27 10.24,-6.39 14.58,-10.42c7.84,-7.29 7.34,-12.61 -1,-19.46c-27.8,-22.85 -55.6,-45.69 -83.43,-68.5c-2.05,-1.68 -4.07,-3.7 -6.47,-4.61c-10.11,-3.82 -17.01,-11.4 -23.84,-19.23c-6.34,-7.27 -12.7,-14.55 -19.49,-21.39c-6.48,-6.53 -14.69,-8.68 -23.86,-7.78c-13.74,1.35 -17.95,5.73 -17.95,19.23c0,147.88 0.06,295.76 -0.16,443.64c-0.01,9.12 2.39,16.85 6.86,24.47c4.11,7.03 9.84,10.63 17.99,10.25c8.06,-0.38 11.88,-6.12 13.78,-12.59c2.89,-9.85 5.88,-19.95 6.61,-30.1c3.82,-52.54 4.54,-105 -4.81,-157.22c-2.94,-16.43 -2.86,-33.22 4.3,-49.07c4.05,-8.96 6.99,-10.93 16.37,-8.16c7.25,2.15 14.51,5.18 20.88,9.21c14.07,8.88 27.4,18.94 41.42,27.9c6.07,3.88 12.9,6.97 19.79,9.07c7.93,2.42 14.25,-0.5 18.19,-6.85c4.16,-6.71 3.68,-13.54 -1.01,-19.58c-3.23,-4.15 -7.04,-8.19 -11.41,-11.03c-15.06,-9.8 -30.51,-19 -45.76,-28.52c-6.42,-4 -12.72,-8.23 -19.74,-12.78zM723.9,820.79c12.22,22.72 26.23,42.9 42.3,61.7c16.44,19.24 32.68,38.66 49.11,57.91c2.33,2.73 4.93,5.56 8,7.28c9.63,5.38 16.69,13.15 22.28,22.41c6.88,11.4 13.2,23.17 20.56,34.24c6.61,9.94 14.01,19.4 21.62,28.61c7.3,8.84 17.38,13.59 28.54,15.09c16.87,2.27 18.86,1.01 25.4,-12.48c1.01,-2.09 2.64,-3.97 3.28,-6.15c0.89,-3.03 1.87,-6.34 1.52,-9.38c-1.6,-13.88 -3.77,-27.68 -5.52,-41.54c-6.43,-50.81 -4.48,-101.64 -0.58,-152.5c1.42,-18.58 2.45,-37.19 3.25,-55.8c0.36,-8.48 -7.39,-17.51 -13.88,-15.95c-8.31,2 -16.48,5.04 -24.3,8.54c-6.3,2.82 -8.97,8.37 -8.29,15.59c1.44,15.24 2.33,30.52 3.88,45.75c3.13,30.87 4.94,61.75 0.74,92.64c-1.54,11.33 -3.38,22.71 -9.35,33.26c-1.44,-1.04 -2.36,-1.47 -2.94,-2.18c-20.92,-25.03 -41.85,-50.06 -62.7,-75.15c-15.97,-19.21 -31.98,-38.41 -44.02,-60.48c-2.82,-5.17 -5.16,-10.6 -7.78,-16.04c19.04,-20.23 31.56,-43.77 44.9,-66.82c7.5,-12.95 15.82,-25.43 24.15,-37.87c3.73,-5.56 6.6,-11.12 8.55,-17.69c2.61,-8.79 6.68,-17.42 11.58,-25.21c6.53,-10.4 14.57,-19.85 21.75,-29.85c6.98,-9.73 13.98,-19.48 20.45,-29.55c6.04,-9.4 9.22,-19.9 9.43,-31.15c0.19,-10.2 -3.61,-13.85 -13.96,-12.97c-10.88,0.93 -19.76,5.63 -25.68,15.1c-20.63,33.02 -42.13,65.55 -61.64,99.22c-27.02,46.65 -52.5,94.19 -78.71,141.31c-3.72,6.68 -7.79,13.14 -11.94,20.11zM1812.61,798.17c10.28,-14.8 19.99,-27.88 28.7,-41.6c8.74,-13.75 16.34,-28.23 24.73,-42.21c4.45,-7.41 9.22,-14.68 14.4,-21.59c4.67,-6.23 7.6,-12.88 9.79,-20.4c2.38,-8.17 6.35,-16.12 10.93,-23.34c6.41,-10.09 14.11,-19.36 21.11,-29.09c7,-9.72 14.07,-19.41 20.64,-29.42c6.51,-9.92 9.91,-21.06 10.39,-32.93c0.36,-9.05 -3.5,-13.03 -12.53,-12.62c-11.25,0.51 -20.66,4.93 -26.95,14.67c-15.35,23.77 -31.66,46.99 -45.74,71.48c-35.16,61.17 -69.23,122.96 -103.95,184.38c-2.59,4.59 -1.7,7.9 0.6,11.91c11.13,19.41 23.9,37.64 38.42,54.68c16.63,19.52 33.08,39.19 49.73,58.68c2.32,2.72 5.06,5.35 8.12,7.14c8.88,5.17 15.76,12.21 21.01,20.91c6.88,11.4 13.14,23.21 20.59,34.22c7.44,10.98 15.41,21.73 24.26,31.57c9.39,10.44 22.28,14.03 36.15,14.23c4.2,0.06 8.23,-0.58 10.62,-4.29c6.28,-9.73 12.15,-18.98 9.45,-32.15c-3.67,-17.87 -5.47,-36.18 -7.1,-54.39c-4.21,-47.26 -1.54,-94.44 2.56,-141.59c1.3,-14.91 2.11,-29.88 2.6,-44.85c0.41,-12.34 -7.86,-19.11 -19.57,-16.33c-5.14,1.22 -10.2,3.06 -15.01,5.25c-8.55,3.9 -14.25,9.76 -12.26,20.28c0.62,3.24 0.44,6.63 0.72,9.95c2.01,23.2 4.48,46.38 5.95,69.62c1.69,26.67 0.72,53.25 -6.84,79.17c-1.04,3.58 -2.72,6.98 -4.15,10.56c-19.59,-23.01 -38.62,-44.8 -57,-67.13c-15.22,-18.5 -30.08,-37.33 -44.26,-56.63c-6.6,-8.99 -11.22,-19.46 -16.11,-28.14zM1637.22,801.94c-1.45,-1.18 -2.37,-2.17 -3.49,-2.8c-16.54,-9.31 -29.69,-22.29 -41.3,-37.14c-11.47,-14.69 -23.33,-29.07 -35.14,-43.49c-10.96,-13.37 -24.34,-23.65 -40.48,-30.02c-5,-1.98 -6.86,-5.14 -7.66,-10.34c-3.25,-21 -1.33,-41.8 1.42,-62.63c2.76,-20.81 5.11,-41.66 1.14,-62.57c-2.1,-11.1 -4.76,-13.31 -16.03,-13.37c-3.6,-0.02 -7.3,0.62 -10.78,1.6c-8.41,2.38 -14.15,7.1 -13.9,16.87c0.12,4.64 -0.52,9.3 -0.71,13.95c-1.69,40.56 -3.6,81.11 -4.97,121.69c-2.4,71.5 -4.69,143 -6.55,214.51c-0.8,30.93 -0.05,61.91 -0.72,92.85c-0.28,12.69 2.61,24.39 7.25,35.84c1.6,3.95 3.93,7.77 6.63,11.07c6.21,7.57 12.93,6.89 17.05,-1.82c2.25,-4.76 3.93,-9.95 4.9,-15.12c5.37,-28.56 7.6,-57.4 5.34,-86.4c-0.46,-5.96 1.02,-9.88 4.88,-14.12c22.72,-24.98 48.31,-46.73 74.87,-67.42c6.27,-4.88 12.86,-9.15 16.36,-16.98c1.49,-3.33 5.42,-5.72 8.57,-8.11c6.88,-5.24 14.14,-10 20.93,-15.34c6.44,-5.09 11.01,-11.53 12.39,-20.71zM1276.19,998.3c-1.89,-3.66 -2.9,-6.1 -4.32,-8.27c-6.43,-9.83 -6.93,-20.09 -4.55,-31.52c3.6,-17.23 6.53,-34.69 8.21,-52.2c2.47,-25.82 4.38,-51.75 5.12,-77.68c1.18,-41.56 3.24,-83.2 -3.03,-124.61c-0.43,-2.87 -0.74,-6.24 0.32,-8.78c4.23,-10.17 3.09,-20.17 0.29,-30.31c-2.87,-10.37 -2.9,-20.27 3.94,-29.5c1.53,-2.06 2.54,-5.89 1.68,-8.1c-4.22,-10.88 -4.11,-22.16 -4.22,-33.47c-0.11,-11.71 -1.39,-23.2 -5.6,-34.28c-2.96,-7.8 -8.14,-13.58 -14.87,-18.27c-4.43,-3.09 -8.49,-2.94 -12.85,0.18c-6.46,4.63 -11.46,10.55 -13.42,18.12c-2.15,8.31 -4.42,16.99 -4.15,25.43c0.55,17.59 2.02,35.23 4.47,52.66c2.37,16.93 3.1,33.75 1.82,50.74c-1.1,14.6 -2.22,29.21 -3,43.83c-0.3,5.62 0.24,11.28 0.53,16.92c0.62,11.94 2.27,23.92 1.78,35.82c-0.91,22.26 -4.19,44.46 -4.43,66.71c-0.68,62.25 -0.34,124.52 -0.31,186.78c0,8.75 2.16,11.97 10.62,12.73c14.59,1.31 28.79,-1.53 39.98,-11.4c13.57,-11.96 27.83,-22.73 43.59,-31.56c7.84,-4.4 15.79,-8.62 23.41,-13.38c24.83,-15.5 49.43,-31.3 76.6,-42.73c7.83,-3.29 14.73,-9.01 21.68,-14.13c5.27,-3.88 8.49,-9.4 8.77,-16.16c0.43,-10.08 -7.86,-16 -17.01,-11.87c-12.74,5.75 -25.65,11.27 -37.86,18.02c-27.08,14.99 -53.76,30.72 -80.63,46.11c-13.84,7.93 -27.74,15.76 -42.56,24.17zM1016.46,1143.79c-0.97,-0.04 -1.94,-0.07 -2.92,-0.11c0.7,13.42 1.41,26.85 2.11,40.27c1.99,-13.45 3.75,-26.87 0.81,-40.16zM2747.33,432.88c1.08,-0.7 1.75,-0.93 1.75,-1.17c0.07,-3.38 0.05,-6.77 0.05,-10.15c-0.8,0.03 -1.6,0.06 -2.4,0.09c0.18,3.55 0.37,7.1 0.6,11.23z"></path><path d="M1083.6,891.93c-27.26,-38.34 -54.01,-75.96 -81.01,-113.93c31.15,-50.23 62,-99.97 93.86,-151.34c2.38,4.25 4.23,7.13 5.67,10.19c8.23,17.47 16.17,35.07 24.57,52.45c10.47,21.66 22.11,42.62 39.79,59.45c3.39,3.23 4.34,6.86 2.86,10.81c-3.12,8.37 -5.67,17.22 -10.35,24.68c-10.43,16.63 -22.39,32.29 -32.99,48.82c-5.52,8.6 -9.45,18.21 -14.14,27.35c-1.35,2.63 -2.35,5.64 -4.33,7.7c-7.34,7.67 -15.04,15.03 -23.93,23.82z"></path><path d="M2122.02,616.52c2.73,17.4 6.99,32.48 5.67,48.23c-1.49,17.77 -8.41,26.12 -25.78,31.06c-4.75,1.35 -8.02,3.86 -11.05,7.7c-14,17.74 -28.28,35.27 -42.52,52.82c-2.02,2.48 -4.38,4.69 -7.74,8.25c-4.61,-15.42 -5.31,-29.64 -1.79,-43.4c2.93,-11.43 7.36,-22.87 13.22,-33.1c16.7,-29.1 41.65,-50.47 69.99,-71.56z"></path><path d="M2227.38,739.49c-9.39,-32.79 -9.45,-65.61 0.93,-98.99c7.75,-0.45 14.04,2.5 19.93,6.08c6.82,4.14 13.42,8.68 19.82,13.44c13.28,9.91 25.73,21.03 43.32,27.38c-28.8,17.87 -55.99,34.73 -84,52.09z"></path><path d="M1585.97,811.09c-26.23,24.24 -51.23,47.35 -77.79,71.9c0,-48.08 0,-93.76 0,-140.87c31.91,16.42 50.84,45.93 77.79,68.97z"></path></g></g></g></g></svg>